<?xml version="1.0" encoding="UTF-8"?>
<svg width="228px" height="83px" viewBox="0 0 228 83" version="1.1" xmlns="http://www.w3.org/2000/svg" xmlns:xlink="http://www.w3.org/1999/xlink">
    <!-- Generator: Sketch 55.2 (78181) - https://sketchapp.com -->
    <title>BTlogo2019</title>
    <desc>Created with Sketch.</desc>
    <g id="Page-1" stroke="none" stroke-width="1" fill="none" fill-rule="evenodd">
        <g id="BTlogo2019">
            <rect id="Rectangle" fill="#003572" x="0" y="0" width="228" height="83"></rect>
            <g id="blue-stacked" transform="translate(19.000000, 20.000000)" fill-rule="nonzero">
                <path d="M58.94,1.15 C58.86,0.98 58.75,0.85 58.47,0.85 L58.2,0.85 C57.95,0.85 57.81,0.99 57.73,1.15 L49.16,19.7 C48.99,20.06 49.21,20.42 49.63,20.42 L52.03,20.42 C52.47,20.42 52.72,20.14 52.83,19.87 L54.18,16.89 L62.42,16.89 L63.77,19.87 C63.96,20.26 64.16,20.42 64.57,20.42 L66.97,20.42 C67.38,20.42 67.6,20.06 67.44,19.7 L58.94,1.15 Z M55.52,13.83 L58.22,7.77 L58.3,7.77 L61.06,13.83 L55.52,13.83 Z" id="Shape" fill="#FFFFFF"></path>
                <path d="M44.74,10.6 C46.04,9.99 47.77,8.34 47.77,6.22 C47.77,3.33 45.23,1.12 41.95,1.12 L35.64,1.12 C35.34,1.12 35.12,1.37 35.12,1.64 L35.12,19.89 C35.12,20.17 35.34,20.41 35.64,20.41 L42.31,20.41 C45.67,20.41 48.3200351,18.18 48.3200351,15.09 C48.33,12.56 46.2,11.07 44.74,10.6 Z M38.68,4.4 L41.63,4.4 C43.04,4.4 44,5.36 44,6.74 C44,8.12 43.03,9.22 41.63,9.22 L38.68,9.22 L38.68,4.4 Z M42.01,17.17 L38.67,17.17 L38.67,12.26 L41.67,12.26 C43.1,12.26 44.48,13.28 44.48,14.66 C44.49,16.09 43.39,17.17 42.01,17.17 Z" id="Shape" fill="#FFFFFF"></path>
                <path d="M83.95,7.05 C83.95,3.77 81.25,1.12 77.94,1.12 L70.06,1.12 C69.76,1.12 69.54,1.37 69.54,1.64 L69.54,19.89 C69.54,20.17 69.76,20.41 70.06,20.41 L72.6,20.41 C72.88,20.41 73.12,20.16 73.12,19.89 L73.12,12.86 L76.18,12.86 L79.85,20.17 C79.9,20.28 80.04,20.42 80.29,20.42 L83.18,20.42 C83.65,20.42 83.84,19.98 83.65,19.62 L79.87,12.62 C82.27,11.65 83.95,9.58 83.95,7.05 Z M77.64,9.92 L73.15,9.92 L73.15,4.43 L77.64,4.43 C79.1,4.43 80.37,5.64 80.37,7.1 C80.37,8.65 79.1,9.92 77.64,9.92 Z" id="Shape" fill="#FFFFFF"></path>
                <path d="M132.56,0.85 C127.05,0.85 122.66,5.29 122.66,10.8 C122.66,16.31 127.04,20.7 132.56,20.7 C138.08,20.7 142.48,16.32 142.48,10.8 C142.48,5.28 138.07,0.85 132.56,0.85 Z M132.56,17.11 C129.09,17.11 126.25,14.27 126.25,10.8 C126.25,7.33 129.09,4.43 132.56,4.43 C136.03,4.43 138.9,7.32 138.9,10.8 C138.9,14.27 136.03,17.11 132.56,17.11 Z" id="Shape" fill="#FFFFFF"></path>
                <path d="M110.8,0.85 C105.29,0.85 100.9,5.29 100.9,10.8 C100.9,16.31 105.28,20.7 110.8,20.7 C116.31,20.7 120.72,16.32 120.72,10.8 C120.72,5.28 116.31,0.85 110.8,0.85 Z M110.8,17.11 C107.33,17.11 104.49,14.27 104.49,10.8 C104.49,7.33 107.33,4.43 110.8,4.43 C114.27,4.43 117.14,7.32 117.14,10.8 C117.14,14.27 114.27,17.11 110.8,17.11 Z" id="Shape" fill="#FFFFFF"></path>
                <path d="M15.04,23.16 L1.19,23.16 C0.79,23.16 0.57,23.63 0.82,23.94 L2.37,26.17 C2.53,26.36 2.76,26.47 3.01,26.47 L6.78,26.47 L6.78,41.93 C6.78,42.22 7.02,42.45 7.3,42.45 L9.86,42.45 C10.15,42.45 10.38,42.21 10.38,41.93 L10.38,26.47 L15.02,26.47 C15.32,26.47 15.54,26.22 15.54,25.95 L15.54,23.69 C15.56,23.41 15.34,23.16 15.04,23.16 Z" id="Path" fill="#FFFFFF"></path>
                <path d="M135.08,41.93 C135.08,42.21 135.33,42.45 135.6,42.45 L138.11,42.45 C138.41,42.45 138.63,42.2 138.63,41.93 L138.63,30.08 L138.66,30.08 L150.18,42.73 L150.84,42.73 C151.12,42.73 151.36,42.51 151.36,42.23 L151.36,23.68 C151.36,23.4 151.11,23.16 150.84,23.16 L148.3,23.16 C148,23.16 147.78,23.41 147.78,23.68 L147.78,35.06 L147.75,35.06 L136.3,22.88 L135.61,22.88 C135.33,22.88 135.09,23.1 135.09,23.38 L135.09,41.93 L135.08,41.93 Z M115.62,32.84 C115.62,29.37 118.46,26.47 121.93,26.47 C125.4,26.47 128.27,29.36 128.27,32.84 C128.27,36.31 125.4,39.15 121.93,39.15 C118.46,39.15 115.62,36.31 115.62,32.84 L115.62,32.84 Z M112.04,32.84 C112.04,38.35 116.42,42.74 121.94,42.74 C127.46,42.74 131.86,38.36 131.86,32.84 C131.86,27.33 127.45,22.89 121.94,22.89 C116.43,22.89 112.04,27.32 112.04,32.84 L112.04,32.84 Z M97.94,40.58 C98.49,41.1 100.53,42.73 104,42.73 C107.89,42.73 110.34,40.11 110.34,37.27 C110.34,33.71 107.25,32.12 104.58,31.04 C102.35,30.13 101.33,29.25 101.33,27.95 C101.33,27.07 102.18,26.02 103.76,26.02 C105.28,26.02 107.37,27.4 107.59,27.54 C107.92,27.76 108.33,27.54 108.55,27.21 L109.6,25.64 C109.79,25.36 109.71,24.9 109.43,24.73 C108.88,24.32 106.73,22.88 103.92,22.88 C99.54,22.88 97.72,25.72 97.72,28.17 C97.72,31.42 100.31,33.08 102.9,34.12 C105.22,35.06 106.4,36.02 106.4,37.43 C106.4,38.62 105.32,39.55 103.89,39.55 C102.1,39.55 99.87,37.92 99.73,37.84 C99.48,37.65 99.01,37.65 98.79,38.03 L97.8,39.74 C97.55,40.2 97.69,40.33 97.94,40.58 L97.94,40.58 Z M86.26,32.09 L86.26,26.55 L89.46,26.55 C91,26.55 92.3,27.71 92.3,29.22 C92.3,30.85 91,32.09 89.46,32.09 L86.26,32.09 Z M82.67,41.93 C82.67,42.21 82.89,42.45 83.19,42.45 L85.73,42.45 C86.01,42.45 86.25,42.2 86.25,41.93 L86.25,35.45 L89.7,35.45 C93.06,35.45 95.85,32.67 95.85,29.25 C95.85,25.91 93.07,23.16 89.68,23.16 L83.2,23.16 C82.9,23.16 82.68,23.41 82.68,23.68 L82.68,41.93 L82.67,41.93 Z M41.05,32.84 C41.05,29.37 43.89,26.47 47.36,26.47 C50.83,26.47 53.7,29.36 53.7,32.84 C53.7,36.31 50.83,39.15 47.36,39.15 C43.89,39.15 41.05,36.31 41.05,32.84 L41.05,32.84 Z M37.47,32.84 C37.47,38.35 41.85,42.74 47.37,42.74 C52.88,42.74 57.29,38.36 57.29,32.84 C57.29,27.33 52.88,22.8899831 47.37,22.8899831 C41.85,22.88 37.47,27.32 37.47,32.84 L37.47,32.84 Z M18.37,41.93 C18.37,42.21 18.62,42.45 18.89,42.45 L21.45,42.45 C21.75,42.45 21.97,42.2 21.97,41.93 L21.97,34.32 L30.96,34.32 L30.96,41.93 C30.96,42.21 31.18,42.45 31.48,42.45 L34.02,42.45 C34.3,42.45 34.54,42.2 34.54,41.93 L34.54,23.68 C34.54,23.4 34.29,23.16 34.02,23.16 L31.5,23.16 C31.2,23.16 30.98,23.41 30.98,23.68 L30.98,30.98 L21.99,30.98 L21.99,23.68 C21.99,23.4 21.77,23.16 21.47,23.16 L18.9,23.16 C18.62,23.16 18.38,23.41 18.38,23.68 L18.38,41.93 L18.37,41.93 Z" id="Shape" fill="#FFFFFF"></path>
                <path d="M78.16,22.88 L77.47,22.88 L69.33,32.9 L61.2,22.88 L60.51,22.88 C60.23,22.88 59.99,23.1 59.99,23.38 L59.99,41.93 C59.99,42.22 60.23,42.45 60.51,42.45 L63.02,42.45 C63.32,42.45 63.54,42.2 63.54,41.93 L63.54,30.9 L63.57,30.9 L68.86,37.67 C68.95,37.77 69.08,37.83 69.22,37.83 L69.34,37.83 L69.46,37.83 C69.6,37.83 69.73,37.77 69.82,37.67 L75.11,30.9 L75.14,30.9 L75.14,41.93 C75.14,42.21 75.36,42.45 75.66,42.45 L78.17,42.45 C78.46,42.45 78.69,42.21 78.69,41.93 L78.69,23.38 C78.68,23.1 78.43,22.88 78.16,22.88 Z" id="Path" fill="#FFFFFF"></path>
                <path d="M99.28,1.12 L88.06,1.12 C87.76,1.12 87.54,1.37 87.54,1.64 L87.54,19.89 C87.54,20.17 87.76,20.41 88.06,20.41 L90.6,20.41 C90.88,20.41 91.12,20.16 91.12,19.89 L91.12,12.92 L97.93,12.92 C98.21,12.92 98.45,12.67 98.45,12.4 L98.45,10.14 C98.45,9.86 98.2,9.62 97.93,9.62 L91.12,9.62 L91.12,4.44 L99.28,4.44 C99.58,4.44 99.8,4.19 99.8,3.92 L99.8,1.66 C99.81,1.37 99.59,1.12 99.28,1.12 Z" id="Path" fill="#FFFFFF"></path>
                <path d="M156.74,1.12 C157.14,1.12 157.36,1.59 157.11,1.9 L155.56,4.13 C155.4,4.32 155.17,4.43 154.92,4.43 L151.39,4.43 L151.39,19.89 C151.39,20.18 151.15,20.41 150.87,20.41 L148.31,20.41 C148.02,20.41 147.79,20.17 147.79,19.89 L147.79,4.43 L143.57,4.43 C143.27,4.43 143.05,4.18 143.05,3.91 L143.05,1.65 C143.05,1.37 143.27,1.13 143.57,1.13 L156.74,1.12 Z" id="Path" fill="#FFFFFF"></path>
                <path d="M188.52,41.73 L183.28,35.35 C184.72,33.34 185.76,31.11 186.28,29.22 C186.42,28.73 186.31,28.46 185.9,27.88 C185.9,27.88 185.9,27.88 183.92,25.04 C183.52,24.46 183.05,24.59 182.93,25.32 C182.52,27.83 181.56,30.11 180.4,31.86 L162.48,10 C162.48,10 164.76,4.58 170.52,4.58 C175.08,4.58 178.31,8.3 179.37,9.7 C179.57,9.96 179.95,9.97 180.16,9.71 L182.22,7.14 C182.4,6.91 182.42,6.6 182.25,6.35 C181.26,4.9 177.48,0.12 170.6,0.12 C164.28,0.12 159.52,4.09 157.38,9.5 C157.16,10.05 157.26,10.68 157.63,11.14 L163.37,18.14 C163.11,18.27 162.84,18.41 162.59,18.56 C161.88,18.98 161.19,19.42 160.55,19.94 C157.57,22.37 155.59,25.38 155.12,29.25 C154.79,31.99 155.33,34.76 156.79,37.11 C158.64,40.11 161.39,41.83 164.75,42.65 C167.73,43.38 170.71,43.19 173.64,42.44 C175.98,41.84 178.05,40.67 179.81,39 C179.88,38.93 180.03,38.8 180.2,38.64 L183.01,42.07 C183.22,42.32 183.53,42.47 183.85,42.47 L188.18,42.47 C188.55,42.46 188.76,42.02 188.52,41.73 Z M169.19,38.54 C166.86,38.5 164.28,37.83 162.64,36.33 C160.46,34.31 159.66,31.67 160.29,28.72 C160.95,25.63 162.87,23.49 165.56,21.95 C165.79,21.82 166.01,21.71 166.22,21.61 L177.38,35.21 C175.35,37.42 171.97,38.46 169.19,38.54 Z" id="Shape" fill="#F8C00B"></path>
                <g id="Group" transform="translate(105.000000, 47.000000)" fill="#FFFFFF">
                    <polygon id="Path" points="0.47 2.76 2.13 2.76 2.13 3.04 0.18 3.04 0.18 0.06 0.48 0.06"></polygon>
                    <polygon id="Path" points="2.61 0.07 2.91 0.07 2.91 3.05 2.61 3.05"></polygon>
                    <path d="M5.08,3.1 C4.05,3.1 3.53,2.41 3.53,1.58 C3.53,0.77 4.04,0.03 5.08,0.03 C5.48,0.03 5.88,0.17 6.13,0.48 L5.95,0.66 C5.71,0.42 5.4,0.3 5.08,0.3 C4.25,0.3 3.83,0.91 3.83,1.57 C3.83,2.27 4.25,2.82 5.08,2.82 C5.4,2.82 5.74,2.69 5.97,2.46 L6.16,2.65 C5.86,2.96 5.49,3.1 5.08,3.1 Z" id="Path"></path>
                    <polygon id="Path" points="6.69 3.05 6.69 0.07 8.79 0.07 8.79 0.35 6.99 0.35 6.99 1.42 8.71 1.42 8.71 1.7 6.99 1.7 6.99 2.77 8.83 2.77 8.83 3.05"></polygon>
                    <polygon id="Path" points="11.51 1.51 11.51 0.08 11.81 0.08 11.81 3.06 11.63 3.06 9.71 0.66 9.72 1.54 9.72 3.06 9.42 3.06 9.42 0.08 9.61 0.08 11.53 2.5"></polygon>
                    <path d="M13.64,0.32 C13.27,0.32 12.8,0.42 12.8,0.86 C12.8,1.21 13.19,1.3 13.65,1.39 C14.24,1.49 14.83,1.63 14.83,2.26 C14.83,2.93 14.18,3.11 13.64,3.11 C13.14,3.11 12.62,2.92 12.4,2.45 L12.66,2.31 C12.86,2.7 13.28,2.83 13.64,2.83 C14.01,2.83 14.53,2.73 14.53,2.26 C14.53,1.86 14.08,1.75 13.62,1.67 C13.06,1.57 12.5,1.45 12.51,0.87 C12.5,0.24 13.15,0.05 13.64,0.05 C14.04,0.05 14.49,0.16 14.75,0.57 L14.5,0.71 C14.33,0.42 13.95,0.32 13.64,0.32 Z" id="Path"></path>
                    <polygon id="Path" points="15.44 3.07 15.44 0.09 17.54 0.09 17.54 0.37 15.74 0.37 15.74 1.44 17.46 1.44 17.46 1.72 15.74 1.72 15.74 2.79 17.58 2.79 17.58 3.07"></polygon>
                    <path d="M20.71,1.56 C20.71,2.31 20.26,3.08 19.21,3.08 L18.16,3.08 L18.16,0.1 L19.21,0.1 C20.23,0.1 20.71,0.83 20.71,1.56 Z M19.21,2.8 C20.03,2.8 20.4,2.18 20.4,1.58 C20.4,0.99 20.02,0.37 19.21,0.37 L18.46,0.37 L18.46,2.79 L19.21,2.8 Z" id="Shape"></path>
                    <path d="M24.29,3.08 L23.3,1.98 L22.53,1.98 L22.53,3.08 L22.23,3.08 L22.23,0.1 L23.57,0.1 C24.23,0.1 24.56,0.54 24.56,1.05 C24.56,1.51 24.3,1.93 23.66,1.96 L24.68,3.08 L24.29,3.08 Z M22.54,1.7 L23.56,1.7 C24.04,1.7 24.27,1.42 24.27,1.05 C24.27,0.68 24.04,0.39 23.58,0.38 L22.54,0.38 L22.54,1.7 Z" id="Shape"></path>
                    <polygon id="Path" points="25.22 3.08 25.22 0.1 27.32 0.1 27.32 0.38 25.52 0.38 25.52 1.45 27.24 1.45 27.24 1.73 25.52 1.73 25.52 2.8 27.36 2.8 27.36 3.08"></polygon>
                    <path d="M28.37,2.4 L28.06,3.09 L27.75,3.09 L29.09,0.11 L29.39,0.11 L30.72,3.09 L30.41,3.09 L30.1,2.4 L28.37,2.4 Z M29.98,2.13 L29.24,0.43 L28.49,2.12 L29.98,2.13 Z" id="Shape"></path>
                    <path d="M31.65,2.41 L31.34,3.1 L31.03,3.1 L32.37,0.12 L32.67,0.12 L34,3.1 L33.69,3.1 L33.38,2.41 L31.65,2.41 Z M33.26,2.14 L32.52,0.44 L31.77,2.13 L33.26,2.14 Z" id="Shape"></path>
                    <path d="M36.44,0.08 C36.99,0.08 37.59,0.3 37.59,0.96 C37.59,1.61 36.99,1.82 36.44,1.82 C36.05,1.82 35.54,1.93 35.54,2.39 L35.54,2.82 L37.57,2.82 L37.57,3.1 L35.26,3.1 L35.26,2.4 C35.26,1.74 35.87,1.56 36.43,1.56 C36.77,1.56 37.31,1.43 37.31,0.97 C37.31,0.5 36.83,0.34 36.44,0.34 C36.06,0.34 35.57,0.45 35.57,0.93 L35.28,0.93 C35.29,0.28 35.9,0.08 36.44,0.08 Z" id="Path"></path>
                    <path d="M39.26,0.08 C39.85,0.08 40.44,0.49 40.44,1.3 L40.44,1.95 C40.44,2.75 39.85,3.16 39.26,3.16 C38.67,3.16 38.08,2.75 38.09,1.94 L38.09,1.29 C38.09,0.49 38.67,0.08 39.26,0.08 Z M39.26,2.88 C39.7,2.88 40.15,2.57 40.15,1.95 L40.15,1.29 C40.15,0.67 39.7,0.36 39.26,0.36 C38.82,0.36 38.38,0.67 38.38,1.29 L38.38,1.95 C38.37,2.57 38.81,2.88 39.26,2.88 Z" id="Shape"></path>
                    <path d="M42.21,0.09 C42.8,0.09 43.39,0.5 43.39,1.31 L43.39,1.96 C43.39,2.76 42.8,3.17 42.21,3.17 C41.62,3.17 41.03,2.76 41.04,1.95 L41.04,1.3 C41.03,0.49 41.62,0.08 42.21,0.09 Z M42.21,2.88 C42.65,2.88 43.1,2.57 43.1,1.95 L43.1,1.29 C43.1,0.67 42.65,0.36 42.21,0.36 C41.77,0.36 41.33,0.67 41.33,1.29 L41.33,1.95 C41.32,2.57 41.76,2.88 42.21,2.88 Z" id="Shape"></path>
                    <path d="M44.55,1.58 C44.23,1.46 43.99,1.25 43.99,0.91 C43.99,0.29 44.6,0.08 45.18,0.08 C45.75,0.08 46.37,0.29 46.37,0.91 C46.37,1.25 46.12,1.48 45.79,1.58 C46.13,1.67 46.42,1.95 46.42,2.3 C46.42,2.96 45.82,3.18 45.18,3.18 C44.54,3.18 43.94,2.96 43.94,2.3 C43.92,1.94 44.21,1.67 44.55,1.58 Z M44.22,2.31 C44.22,2.74 44.71,2.92 45.17,2.92 C45.63,2.92 46.12,2.74 46.12,2.31 C46.12,1.86 45.53,1.7 45.18,1.7 C44.82,1.7 44.22,1.85 44.22,2.31 Z M45.17,1.45 C45.53,1.45 46.06,1.32 46.06,0.9 C46.06,0.47 45.61,0.32 45.16,0.32 C44.71,0.32 44.27,0.47 44.27,0.89 C44.28,1.32 44.82,1.45 45.17,1.45 Z" id="Shape"></path>
                </g>
            </g>
        </g>
    </g>
</svg>